# xmcd CD database file
#
# Track frame offsets:
#	150
#	15009
#	28959
#	41923
#	55423
#	82574
#	97953
#	110159
#	121486
#
# Disc length: 1781 seconds
#
# Revision: 0
# Processed by: cddbd v1.5.2PL0 Copyright (c) Steve Scherf et al.
# Submitted via: CDex 1.70beta2
#
DISCID=6906f309
DTITLE=Lionel Hampton - Flying Home CD6
DYEAR=2008
DGENRE=Jazz
TTITLE0=1 64 Bars On Wilshire   (Kessel)
TTITLE1=2 Cobb’s Idea  (Cobb/Hampton)
TTITLE2=3 Four Or Fives Times   (Hellman/Gay)
TTITLE3=4 Hamp’s Walking Boogie  (Hampton)
TTITLE4=5 It Don’t Mean A Thing If I Ain’t Got That Swing (Ellington/Mills)
TTITLE5=6 Ring Dem Bells  (Ellington/Mills)
TTITLE6=7 Someday  (Hampton/McAdams)
TTITLE7=8 Airmail Special  (J. Mundy/B. Goodman/C. Christian)
TTITLE8=9 On The Sunny Side Of The Street (McHugh/Fields)
EXTD=YEAR: 2008
EXTT0=
EXTT1=
EXTT2=
EXTT3=
EXTT4=
EXTT5=
EXTT6=
EXTT7=
EXTT8=
PLAYORDER=
